<?xml version="1.0" encoding="UTF-8"?>
<svg width="256px" height="256px" viewBox="0 0 256 256" version="1.1" xmlns="http://www.w3.org/2000/svg" xmlns:xlink="http://www.w3.org/1999/xlink">
    <title>fmpac</title>
    <g id="fmpac" stroke="none" stroke-width="1" fill="none" fill-rule="evenodd">
        <rect fill="#000000" x="0" y="0" width="256" height="256"></rect>
        <path d="M244,0 C250.627417,-1.21743675e-15 256,5.372583 256,12 L256,244 C256,250.627417 250.627417,256 244,256 L12,256 C5.372583,256 8.11624501e-16,250.627417 0,244 L0,12 C-8.11624501e-16,5.372583 5.372583,1.21743675e-15 12,0 L244,0 Z M233.622896,15.5151515 L22.3771044,15.5151515 C19.0633959,15.5151515 16.3771044,18.201443 16.3771044,21.5151515 L16.3771044,233.622896 C16.3771044,236.936604 19.0633959,239.622896 22.3771044,239.622896 L233.622896,239.622896 C236.936604,239.622896 239.622896,236.936604 239.622896,233.622896 L239.622896,21.5151515 C239.622896,18.201443 236.936604,15.5151515 233.622896,15.5151515 Z" id="Combined-Shape" fill="#FFFFFF"></path>
        <path d="M137.164983,28.6565657 C137.164983,89.037037 137.164983,127.393939 137.164983,143.727273 C129.612795,138.076599 106.298822,127.569024 70.21633,148.094276 C34.1338384,168.619529 34.7112795,203.199495 46.3602694,215.274411 C58.0092593,227.349327 84.5976431,233.260101 106.298822,225.144781 C128,217.029461 148.979798,191.279461 148.979798,171.978956 C148.979798,134.088384 148.979798,100.175084 148.979798,84.260101 C167.127104,81.7920875 178.157407,88.5008418 192.388047,99.8602694 C206.618687,111.219697 210.47138,120.601852 215.878788,135.638889 C221.286195,150.675926 224.788721,105.224747 219.281145,91.4217172 C213.773569,77.6186869 206.377104,70.3257576 186.158249,59.0429293 C165.939394,47.760101 157.372054,43.4991582 148.117845,28.6565657 C144.046016,28.6565657 140.395062,28.6565657 137.164983,28.6565657 Z" id="Path" fill="#FFFFFF"></path>
    </g>
</svg>